<svg aria-hidden="true" style="position: absolute; width: 0; height: 0; overflow: hidden;" version="1.1" xmlns="http://www.w3.org/2000/svg" xmlns:xlink="http://www.w3.org/1999/xlink">
<defs>
<symbol id="icon-crab" viewBox="0 0 39 32"><path fill="#554644" style="fill: var(--color10, #554644)" d="M15.596 12.85l-0.225-0.003 0.019-1.46 0.225 0.003-0.019 1.46z"></path><path fill="#de3a08" style="fill: var(--color11, #de3a08)" d="M5.057 25.7c0 0-1.232-2.693 0.161-3.904l1.125 0.99-1.287 2.914z"></path><path fill="#de3a08" style="fill: var(--color11, #de3a08)" d="M9.715 19.952c0 0-1.564-0.077-2.339 0.031s-2.172 1.807-2.172 1.807l1.102 0.982c0 0 1.697-1.556 2.361-1.546s1.092-0.396 1.092-0.396l-0.044-0.879z"></path><path fill="#de3a08" style="fill: var(--color11, #de3a08)" d="M12.358 19.57c0 0-2.325-0.25-2.635 0.347s0.045 0.903 0.045 0.903 2.198-0.301 2.651-0.417c0.453-0.116-0.061-0.832-0.061-0.832z"></path><path fill="#de3a08" style="fill: var(--color11, #de3a08)" d="M0.19 13.094c0 0-0.726 2.715 0.659 3.822l0.859-1.038-1.518-2.785z"></path><path fill="#de3a08" style="fill: var(--color11, #de3a08)" d="M5.042 18.6c0 0-1.363 0.158-2.060 0.086s-2.169-1.757-2.169-1.757l0.827-1.070c0 0 1.716 1.522 2.297 1.478s1.017 0.354 1.017 0.354l0.088 0.91z"></path><path fill="#de3a08" style="fill: var(--color11, #de3a08)" d="M7.426 18.831c0 0-2.004 0.384-2.361-0.229s-0.090-0.954-0.090-0.954 1.972 0.203 2.385 0.302c0.414 0.099 0.065 0.88 0.065 0.88z"></path><path fill="#de3a08" style="fill: var(--color11, #de3a08)" d="M10.438 19.012c0 0-2.368 0.107-3.075-0.196 0 0-0.602-0.651-0.064-0.835s4.168-0.333 4.168-0.333l-1.030 1.364z"></path><path fill="#de3a08" style="fill: var(--color11, #de3a08)" d="M5.005 13.256c0 0-1.324-0.523-1.925-0.933s-1.128-2.705-1.128-2.705l1.277-0.591c0 0 0.827 2.263 1.381 2.508s0.757 0.83 0.757 0.83l-0.363 0.892z"></path><path fill="#de3a08" style="fill: var(--color11, #de3a08)" d="M7.045 14.639c0 0-1.966-0.637-2.001-1.368s0.361-0.909 0.361-0.909 1.665 1.153 1.989 1.446c0.323 0.294-0.349 0.831-0.349 0.831z"></path><path fill="#de3a08" style="fill: var(--color11, #de3a08)" d="M9.765 16.347c0 0-2.227-1.061-2.726-1.695 0 0-0.23-0.91 0.355-0.819s3.992 1.733 3.992 1.733l-1.621 0.782z"></path><path fill="#de3a08" style="fill: var(--color11, #de3a08)" d="M16.428 0c0 0-4.661 0.385-5.693 3.378 0 0 0.35 0.912 1.178 0.848 0 0 0.886-1.932 2.057-2.654s2.458-1.572 2.458-1.572z"></path><path fill="#ff7d43" style="fill: var(--color12, #ff7d43)" d="M11.807 14.964c0 0-3.059-2.798-3.023-5.406 0 0 0.718-0.783 1.532-0.281l-0.068 0.437 0.871 0.137-0.271 0.779 0.955 0.076-0.187 0.718 1.028 0.087-0.343 0.768 1.028 0.087-0.489 0.745 1.066 0.317-2.1 1.536z"></path><path fill="#de3a08" style="fill: var(--color11, #de3a08)" d="M13.243 12.823l0.49-0.748-1.032-0.088 0.344-0.771-1.032-0.088 0.187-0.721-0.959-0.076 0.272-0.782-0.875-0.138 0.139-0.653c-0.744-0.459-1.477 0.364-1.59 0.477 0.287-0.153 0.443-0.298 0.789 0.109l0.186 0.479 0.97 0.003-0.272 0.782 0.959 0.076-0.187 0.721 1.032 0.088-0.345 0.771 1.032 0.088-0.49 0.748 1.070 0.319 0.379-0.278-1.070-0.319z"></path><path fill="#ff6309" style="fill: var(--color13, #ff6309)" d="M8.747 9.597c0.058-0.367-1.040-1.516 0.295-2.358l1.612 1.23c0 0-0.347 0.772-0.698 1.093l-1.209 0.036z"></path><path fill="#de3a08" style="fill: var(--color11, #de3a08)" d="M8.806 9.597c0.058-0.367-1.173-1.534 0.291-2.358l1.801 1.256c0 0-0.372 0.769-0.756 1.085l-1.336 0.018z"></path><path fill="#ff6309" style="fill: var(--color13, #ff6309)" d="M8.747 9.604c0.058-0.368-1.040-1.52 0.295-2.365l1.612 1.233c0 0-0.364 0.885-0.715 1.206l-1.192-0.074z"></path><path fill="#ff7d43" style="fill: var(--color12, #ff7d43)" d="M8.702 7.557c0 0 1.367-1.11 1.048-2.177s0.432-1.913 0.935-2.297c0 0 0.808 1.113 1.622 0.519 0.634-0.462 0.73-0.917 0.73-0.917l0.503 0.391 0.372-0.694 0.691 0.374 0.283-0.861 0.694 0.256 0.099-0.96 0.793 0.071-0.028-0.612 0.878 0.356c0 0-0.305 1.565-2.281 2.703s-2.16 1.814-2.522 2.931c-0.361 1.117-1.842 1.33-1.842 1.33l-1.976-0.413z"></path><path fill="#de3a08" style="fill: var(--color11, #de3a08)" d="M17.27 1.242c-0.147 0.442-0.661 1.597-2.228 2.489-1.976 1.126-2.16 1.795-2.522 2.9s-1.842 1.316-1.842 1.316l-1.976-0.408c0 0 0.333 0.208 0.609 0.355 0.344 0.184 1.356 0.401 1.356 0.401s1.681-0.26 2.067-1.348c0.387-1.088 0.47-1.915 2.512-3.047s2.076-2.843 2.076-2.843l-0.053 0.185z"></path><path fill="#fa6109" style="fill: var(--color14, #fa6109)" d="M16.428 0c0 0-4.621 0.53-5.774 3.077 0 0 0.304 0.747 1.125 0.656 0 0 0.962-1.654 2.151-2.31s2.498-1.423 2.498-1.423z"></path><path fill="#554644" style="fill: var(--color10, #554644)" d="M14.81 11.041c0.056-0.355 0.389-0.597 0.743-0.542s0.598 0.389 0.542 0.744c-0.056 0.355-0.389 0.597-0.744 0.542s-0.598-0.389-0.542-0.743z"></path><path fill="#fff" style="fill: var(--color4, #fff)" d="M15.613 11.103c-0.091 0.066-0.218 0.046-0.284-0.045s-0.046-0.218 0.045-0.284c0.091-0.066 0.218-0.046 0.284 0.045s0.046 0.218-0.045 0.284z"></path><path fill="#ff7d43" style="fill: var(--color12, #ff7d43)" d="M3.246 5.693c0 0-2.024 2.148-1.301 3.822l1.308-0.544-0.007-3.278z"></path><path fill="#ff7c30" style="fill: var(--color15, #ff7c30)" d="M5.090 13.012c0 0-1.35-0.504-1.965-0.895s-1.174-2.549-1.174-2.549l1.291-0.541c0 0 0.864 2.131 1.429 2.367s0.778 0.786 0.778 0.786l-0.359 0.833z"></path><path fill="#fa6109" style="fill: var(--color14, #fa6109)" d="M7.12 14.314c0 0-2.031-0.607-2.075-1.281s0.363-0.834 0.363-0.834 1.727 1.079 2.063 1.353c0.336 0.274-0.351 0.761-0.351 0.761z"></path><path fill="#e86a00" style="fill: var(--color16, #e86a00)" d="M9.859 15.94c0 0-2.232-1.005-2.735-1.597 0 0-0.239-0.845 0.345-0.755s3.998 1.645 3.998 1.645l-1.608 0.707z"></path><path fill="#ff7d43" style="fill: var(--color12, #ff7d43)" d="M0.191 12.931c0 0-0.728 2.658 0.657 3.741l0.86-1.016-1.517-2.725z"></path><path fill="#fa6109" style="fill: var(--color14, #fa6109)" d="M5.042 18.258c0 0-1.373 0.168-2.072 0.109s-2.157-1.643-2.157-1.643l0.846-1.028c0 0 1.704 1.425 2.29 1.375s1.017 0.323 1.017 0.323l0.076 0.864z"></path><path fill="#fa6109" style="fill: var(--color14, #fa6109)" d="M7.26 18.421c0 0-1.951 0.365-2.289-0.173s-0.075-0.844-0.075-0.844 1.912 0.155 2.312 0.238c0.401 0.083 0.052 0.78 0.052 0.78z"></path><path fill="#e86a00" style="fill: var(--color16, #e86a00)" d="M10.278 18.591c0 0-2.321 0.137-3.009-0.151 0 0-0.581-0.63-0.052-0.817s4.088-0.382 4.088-0.382l-1.027 1.35z"></path><path fill="#fa6109" style="fill: var(--color14, #fa6109)" d="M4.921 25.537c0 0-0.972-2.599 0.249-3.822l0.93 0.937-1.179 2.886z"></path><path fill="#e86a00" style="fill: var(--color16, #e86a00)" d="M9.177 19.766c0 0-1.357-0.031-2.033 0.1s-1.939 1.874-1.939 1.874l0.929 0.951c0 0 1.519-1.609 2.096-1.617s0.96-0.428 0.96-0.428l-0.013-0.879z"></path><path fill="#de3a08" style="fill: var(--color11, #de3a08)" d="M11.433 19.381c0 0-1.999-0.175-2.283 0.408s0.013 0.868 0.013 0.868 1.905-0.352 2.299-0.477c0.394-0.125-0.029-0.8-0.029-0.8z"></path><path fill="#de3a08" style="fill: var(--color11, #de3a08)" d="M12.3 22.11c-0.373 0.016-3.33-0.526-4.411 1.17s-0.973 2.908-0.973 2.908 2.225-0.47 2.296-1.877c0 0 2.446 0.013 2.716-0.765 0 0 1.079 0.693 1.566-0.051s-1.194-1.383-1.194-1.383z"></path><path fill="#ff7d43" style="fill: var(--color12, #ff7d43)" d="M9.892 29.426c0 0-1.587 0.198-2.090-0.858s-0.386-1.338-0.386-1.338-0.506-0.081-0.503-1.056c0.003-0.976 1.94-1.043 1.94-1.043s0.557 1.666 0.166 2.279c0 0 1.378 0.67 0.873 2.016z"></path><path fill="#de3a08" style="fill: var(--color11, #de3a08)" d="M29.84 29.603c0 0 2-2.177 1.054-3.741l-1.372 0.598 0.319 3.143z"></path><path fill="#de3a08" style="fill: var(--color11, #de3a08)" d="M27.151 22.69c0 0 1.522 0.407 2.23 0.749s1.523 2.394 1.523 2.394l-1.359 0.599c0 0-1.145-2.008-1.784-2.202s-0.924-0.713-0.924-0.713l0.313-0.826z"></path><path fill="#de3a08" style="fill: var(--color11, #de3a08)" d="M24.748 21.552c0 0 2.284 0.47 2.396 1.121s-0.317 0.831-0.317 0.831-1.996-0.946-2.391-1.192c-0.395-0.246 0.312-0.76 0.312-0.76z"></path><path fill="#de3a08" style="fill: var(--color11, #de3a08)" d="M38.305 19.112c0 0-0.158 2.781-1.794 3.416l-0.483-1.235 2.277-2.18z"></path><path fill="#de3a08" style="fill: var(--color11, #de3a08)" d="M31.962 22.834c0 0 1.255 0.588 1.943 0.737s2.612-1.034 2.612-1.034l-0.463-1.311c0 0-2.106 0.948-2.648 0.72s-1.080 0.024-1.080 0.024l-0.363 0.864z"></path><path fill="#de3a08" style="fill: var(--color11, #de3a08)" d="M29.695 22.32c0 0 1.773 0.938 2.288 0.497s0.364-0.825 0.364-0.825c0 0-1.915-0.404-2.333-0.438s-0.32 0.767-0.32 0.767z"></path><path fill="#de3a08" style="fill: var(--color11, #de3a08)" d="M26.743 21.533c0 0 2.208 0.82 2.97 0.746 0 0 0.77-0.436 0.317-0.773s-3.843-1.581-3.843-1.581l0.555 1.608z"></path><path fill="#de3a08" style="fill: var(--color11, #de3a08)" d="M33.66 17.811c0 0 1.439-0.097 2.146-0.309s1.93-2.292 1.93-2.292l-1.047-0.978c0 0-1.503 1.953-2.112 2.019s-0.988 0.574-0.988 0.574l0.072 0.985z"></path><path fill="#de3a08" style="fill: var(--color11, #de3a08)" d="M31.309 18.461c0 0 2.088 0.008 2.344-0.665s-0.072-0.961-0.072-0.961-1.955 0.567-2.356 0.743c-0.401 0.175 0.084 0.884 0.084 0.884z"></path><path fill="#de3a08" style="fill: var(--color11, #de3a08)" d="M28.202 19.275c0 0 2.414-0.339 3.075-0.798 0 0 0.493-0.807-0.083-0.9s-4.275 0.445-4.275 0.445l1.283 1.252z"></path><path fill="#de3a08" style="fill: var(--color11, #de3a08)" d="M22.934 4.397c0 0 4.673-0.245 6.1 2.515 0 0-0.224 0.929-1.054 0.977 0 0-1.139-1.752-2.397-2.296s-2.648-1.196-2.648-1.196z"></path><path fill="#ff7525" style="fill: var(--color17, #ff7525)" d="M26.671 17.323c0 0 3.792-1.712 4.559-4.192 0 0-0.447-0.961-1.382-0.735l-0.069 0.435-0.877-0.137 0.020 0.82-0.939-0.22-0.042 0.736-1.012-0.232 0.093 0.831-1.012-0.232 0.239 0.854-1.12-0.026 1.541 2.096z"></path><path fill="#ff7d43" style="fill: var(--color12, #ff7d43)" d="M26.008 14.83l-0.24-0.857 1.014 0.233-0.093-0.834 1.014 0.233 0.042-0.739 0.941 0.221-0.020-0.823 0.879 0.137 0.067-0.66c0.852-0.206 1.301 0.796 1.374 0.938-0.227-0.233-0.332-0.417-0.788-0.138l-0.325 0.396-0.929-0.294 0.020 0.823-0.941-0.221-0.042 0.739-1.014-0.233 0.093 0.834-1.014-0.233 0.24 0.857-1.122-0.026-0.278-0.379 1.122 0.026z"></path><path fill="#ff6309" style="fill: var(--color13, #ff6309)" d="M31.234 13.094c0.058-0.357 1.454-1.096 0.442-2.277l-1.91 0.66c0 0 0.093 0.82 0.329 1.223l1.139 0.394z"></path><path fill="#de3a08" style="fill: var(--color11, #de3a08)" d="M31.17 13.094c0.058-0.37 1.591-1.117 0.454-2.358l-2.102 0.657c0 0 0.116 0.853 0.383 1.275l1.266 0.427z"></path><path fill="#ff6309" style="fill: var(--color13, #ff6309)" d="M31.234 13.094c0.058-0.357 1.454-1.096 0.442-2.277l-1.91 0.66c0 0 0.076 0.928 0.312 1.33l1.156 0.287z"></path><path fill="#ff7d43" style="fill: var(--color12, #ff7d43)" d="M31.718 10.795c0 0-1.505-0.908-1.333-2.001s-0.687-1.825-1.237-2.135c0 0-0.652 1.204-1.539 0.73-0.691-0.369-0.848-0.805-0.848-0.805l-0.446 0.453-0.463-0.632-0.635 0.461-0.397-0.809-0.654 0.346-0.228-0.932-0.777 0.177-0.054-0.606-0.823 0.468c0 0 0.513 1.499 2.627 2.352s2.388 1.493 2.896 2.544c0.509 1.050 2.006 1.060 2.006 1.060l1.904-0.673z"></path><path fill="#de3a08" style="fill: var(--color11, #de3a08)" d="M22.361 5.627c0.206 0.422 0.873 1.509 2.549 2.19 2.114 0.859 2.388 1.503 2.896 2.561s2.006 1.067 2.006 1.067l1.904-0.677c0 0-0.302 0.253-0.556 0.439-0.316 0.231-1.291 0.586-1.291 0.586s-1.703-0.032-2.234-1.069c-0.532-1.037-0.727-1.853-2.907-2.71s-2.446-2.565-2.446-2.565l0.078 0.178z"></path><path fill="#fa6109" style="fill: var(--color14, #fa6109)" d="M23.016 4.311c0 0 4.618-0.094 6.1 2.347 0 0-0.198 0.804-1.018 0.824 0 0-1.172-1.556-2.431-2.062s-2.651-1.11-2.651-1.11z"></path><path fill="#ff7d43" style="fill: var(--color12, #ff7d43)" d="M37.676 11.142c0 0 1.207 2.622 0.037 3.985l-1.035-0.9 0.998-3.085z"></path><path fill="#ff7c30" style="fill: var(--color15, #ff7c30)" d="M33.67 17.485c0 0 1.444-0.074 2.152-0.262s1.914-2.083 1.914-2.083l-1.061-0.908c0 0-1.489 1.777-2.1 1.831s-0.986 0.517-0.986 0.517l0.082 0.905z"></path><path fill="#fa6109" style="fill: var(--color14, #fa6109)" d="M31.316 18.136c0 0 2.092 0.029 2.341-0.617s-0.082-0.928-0.082-0.928-1.953 0.527-2.353 0.691c-0.4 0.165 0.093 0.854 0.093 0.854z"></path><path fill="#e86a00" style="fill: var(--color16, #e86a00)" d="M28.238 18.868c0 0 2.454-0.303 3.122-0.74 0 0 0.494-0.778-0.093-0.874s-4.348 0.385-4.348 0.385l1.319 1.229z"></path><path fill="#ff7d43" style="fill: var(--color12, #ff7d43)" d="M38.387 18.949c0 0-0.156 2.783-1.793 3.416l-0.484-1.237 2.277-2.179z"></path><path fill="#fa6109" style="fill: var(--color14, #fa6109)" d="M32.124 22.504c0 0 1.246 0.583 1.926 0.74s2.548-0.927 2.548-0.927l-0.482-1.253c0 0-2.052 0.856-2.59 0.628s-1.062 0-1.062 0l-0.34 0.812z"></path><path fill="#fa6109" style="fill: var(--color14, #fa6109)" d="M29.943 21.97c0 0 1.739 0.952 2.229 0.531s0.336-0.799 0.336-0.799-1.865-0.433-2.271-0.475c-0.407-0.042-0.294 0.742-0.294 0.742z"></path><path fill="#e86a00" style="fill: var(--color16, #e86a00)" d="M27.003 21.171c0 0 2.159 0.841 2.897 0.785 0 0 0.738-0.407 0.292-0.744s-3.76-1.612-3.76-1.612l0.572 1.571z"></path><path fill="#fa6109" style="fill: var(--color14, #fa6109)" d="M30.004 29.522c0 0 1.727-2.192 0.937-3.741l-1.176 0.611 0.239 3.13z"></path><path fill="#e86a00" style="fill: var(--color16, #e86a00)" d="M27.762 22.69c0 0 1.283 0.385 1.879 0.714s1.264 2.342 1.264 2.342l-1.155 0.604c0 0-0.948-1.966-1.487-2.15s-0.774-0.693-0.774-0.693l0.273-0.816z"></path><path fill="#de3a08" style="fill: var(--color11, #de3a08)" d="M25.739 21.633c0 0 1.894 0.432 1.98 1.062s-0.272 0.808-0.272 0.808-1.65-0.897-1.975-1.131c-0.325-0.234 0.267-0.74 0.267-0.74z"></path><path fill="#de3a08" style="fill: var(--color11, #de3a08)" d="M24.035 23.91c0.352 0.13 3.35 0.525 3.865 2.469s0.041 3.061 0.041 3.061-1.986-1.131-1.623-2.49c0 0-2.346-0.74-2.366-1.563 0 0-1.245 0.326-1.483-0.531s1.567-0.946 1.567-0.946z"></path><path fill="#ff7d43" style="fill: var(--color12, #ff7d43)" d="M24.076 31.624c0 0 1.47 0.675 2.278-0.166s0.782-1.143 0.782-1.143 0.513 0.080 0.809-0.841c0.296-0.92-1.551-1.58-1.551-1.58s-1.048 1.399-0.858 2.097c0 0-1.534 0.207-1.46 1.632z"></path><path fill="#554644" style="fill: var(--color10, #554644)" d="M24.634 12.707c0.056-0.355-0.187-0.688-0.542-0.744s-0.688 0.187-0.744 0.542c-0.056 0.355 0.187 0.688 0.542 0.743s0.688-0.187 0.744-0.542z"></path><path fill="#554644" style="fill: var(--color10, #554644)" d="M23.26 14.324l0.258 0.071 0.474-1.393-0.258-0.071-0.474 1.393z"></path><path fill="#ff7d43" style="fill: var(--color12, #ff7d43)" d="M27.724 17.854c0.049-0.405 0.066-1.387-0.914-1.436-0.053-0.003-0.1-0.037-0.112-0.089-0.099-0.413-0.587-2.121-1.733-1.269-0.075 0.056-0.184 0.011-0.19-0.083-0.033-0.504-0.246-1.573-1.499-0.873-0.064 0.036-0.143 0.010-0.17-0.058-0.145-0.368-0.644-1.333-1.648-0.494-0.059 0.050-0.15 0.029-0.181-0.042-0.113-0.256-0.438-0.729-1.281-0.614-0.31 0.042-0.516 0.109-0.653 0.184-0.047 0.026-0.103 0.017-0.139-0.022-0.107-0.113-0.282-0.24-0.565-0.376-0.767-0.368-1.221-0.018-1.407 0.192-0.051 0.058-0.144 0.049-0.185-0.016-0.699-1.107-1.469-0.341-1.72-0.036-0.046 0.056-0.13 0.056-0.18 0.003-0.979-1.050-1.509-0.098-1.695 0.372-0.035 0.087-0.152 0.097-0.207 0.021-0.83-1.162-1.818 0.314-2.038 0.677-0.028 0.046-0.082 0.064-0.134 0.050-0.947-0.254-1.232 0.686-1.309 1.087-0.015 0.078-0.098 0.115-0.171 0.082-0.484-0.216-0.929 0.401-1.117 0.714-0.043 0.071-0.002 0.165 0.080 0.179 0.415 0.068 1.477 0.526 2.094 3.371 0.779 3.593 1.64 4.17 2.922 4.677 1.821 0.719 3.42 0.614 3.859 0.566 0.021-0.002 0.039 0 0.058 0.009 0.404 0.18 1.894 0.771 3.847 0.645 1.375-0.089 2.372-0.374 4.214-3.555 1.459-2.519 2.609-2.63 3.025-2.567 0.082 0.012 0.149-0.065 0.131-0.146-0.083-0.356-0.317-1.080-0.844-1.023-0.079 0.009-0.147-0.052-0.137-0.131z"></path><path fill="#de3a08" style="fill: var(--color11, #de3a08)" d="M8.458 15.886c0.431 0.070 1.224 0.625 1.857 3.617 0.799 3.779 1.691 4.384 3.020 4.913 1.89 0.753 3.551 0.637 4.005 0.585 0.020-0.002 0.038 0 0.057 0.009 0.416 0.188 1.962 0.807 3.991 0.67 1.427-0.097 2.272-0.515 4.381-3.752 1.469-2.255 1.904-2.29 2.443-2.512 0.147-0.061 0.477-0.186 0.497-0.443 0 0-5.359-1.903-7.628-0.020-0.77 0.639-1.4 1.233-1.895 1.738-0.663 0.676-1.778 0.497-2.189-0.355-0.304-0.629-0.727-1.438-1.317-2.466-2.004-3.497-7.113-2.171-7.113-2.171l-0.108 0.187z"></path><path fill="#f16a30" style="fill: var(--color18, #f16a30)" d="M28.708 19.007c0 0-5.502-1.911-7.686-0.126-0.742 0.606-1.347 1.169-1.824 1.648-0.638 0.641-1.713 0.469-2.112-0.343-0.294-0.599-0.592-1.443-1.275-2.347-2.658-3.515-7.246-2.108-7.246-2.108l-0.108 0.188c0.010 0.044 0.042 0.082 0.091 0.089 0.416 0.068 1.478 0.526 2.095 3.371 0.779 3.594 1.641 4.171 2.924 4.677 1.824 0.72 3.425 0.613 3.863 0.566 0.020-0.002 0.037 0 0.055 0.009 0.402 0.18 1.893 0.772 3.85 0.645 1.376-0.089 2.373-0.374 4.216-3.556 1.459-2.519 2.611-2.63 3.027-2.567l0.131-0.146z"></path><path fill="#fff" style="fill: var(--color4, #fff)" d="M24.152 12.559c-0.091 0.079-0.218 0.055-0.284-0.053s-0.046-0.261 0.045-0.341c0.091-0.079 0.218-0.055 0.284 0.053s0.046 0.261-0.045 0.341z"></path><path fill="#ffa073" style="fill: var(--color19, #ffa073)" d="M21.083 15.778c-1.857 0-4.832-0.386-5.447-1.257-0.199-0.281 1.044-0.613 2.464-0.613 0.419 0 0.854 0.029 1.271 0.097 1.833 0.297 3.397 1.061 3.225 1.543-0.054 0.151-0.668 0.231-1.513 0.231z"></path></symbol>
</defs>
</svg>
